<svg xmlns="http://www.w3.org/2000/svg" xmlns:xlink="http://www.w3.org/1999/xlink" width="500" zoomAndPan="magnify" viewBox="0 0 375 374.999991" height="500" preserveAspectRatio="xMidYMid meet" version="1.0"><defs><g/><clipPath id="id1"><path d="M 92.378906 62 L 282.878906 62 L 282.878906 227.738281 L 92.378906 227.738281 Z M 92.378906 62 " clip-rule="nonzero"/></clipPath></defs><g clip-path="url(#id1)"><path fill="#38b6ff" d="M 222.792969 104.6875 C 223.289062 105.554688 223.765625 106.421875 224.222656 107.296875 C 224.761719 108.320312 225.273438 109.355469 225.757812 110.390625 C 225.875 110.644531 225.992188 110.886719 226.097656 111.140625 C 226.449219 111.933594 226.785156 112.726562 227.105469 113.53125 C 227.519531 114.574219 227.898438 115.632812 228.257812 116.699219 C 229.085938 119.203125 229.753906 121.746094 230.261719 124.335938 C 230.472656 125.421875 230.652344 126.511719 230.8125 127.609375 C 230.960938 128.675781 231.089844 129.753906 231.183594 130.832031 C 231.277344 131.898438 231.351562 132.976562 231.394531 134.054688 C 231.460938 135.773438 231.460938 137.507812 231.394531 139.230469 C 231.003906 148.839844 228.480469 158.359375 223.863281 166.789062 C 221.964844 170.230469 219.710938 173.503906 217.144531 176.570312 C 214.550781 179.664062 211.667969 182.496094 208.554688 185.027344 C 208.480469 185.082031 207.070312 186.191406 206.71875 186.457031 C 206.378906 186.71875 206.085938 186.953125 205.957031 187.035156 L 205.925781 187.066406 C 203.984375 188.515625 202.035156 189.867188 200.078125 191.125 C 199.164062 191.703125 198.242188 192.273438 197.320312 192.824219 C 197.746094 193.394531 198.191406 193.945312 198.644531 194.492188 C 199.863281 195.953125 201.199219 197.3125 202.621094 198.558594 C 203.5625 197.980469 204.515625 197.378906 205.457031 196.753906 C 207.144531 195.632812 208.828125 194.460938 210.503906 193.203125 L 211.414062 192.496094 L 213.308594 191.039062 L 213.234375 190.859375 L 213.351562 190.996094 C 216.890625 188.125 220.144531 184.933594 223.046875 181.480469 C 225.898438 178.078125 228.441406 174.390625 230.601562 170.441406 C 235.792969 160.96875 238.632812 150.296875 239.066406 139.535156 C 239.121094 138.140625 239.140625 136.734375 239.121094 135.339844 C 239.097656 134.210938 239.054688 133.089844 238.980469 131.972656 C 238.90625 130.84375 238.8125 129.710938 238.683594 128.59375 C 238.558594 127.460938 238.398438 126.332031 238.21875 125.203125 C 237.785156 122.488281 237.179688 119.792969 236.429688 117.140625 C 236.109375 116.011719 235.761719 114.890625 235.378906 113.78125 C 235 112.664062 234.585938 111.542969 234.140625 110.445312 C 233.820312 109.640625 233.484375 108.851562 233.121094 108.058594 C 232.984375 107.75 232.847656 107.445312 232.699219 107.140625 C 231.714844 105.015625 230.632812 102.957031 229.476562 100.949219 C 228.152344 98.636719 226.753906 96.40625 225.3125 94.253906 C 222.917969 90.648438 218.554688 84.777344 211.574219 79.011719 C 204.613281 73.265625 195.023438 67.613281 182.148438 64.421875 C 174.054688 62.257812 165.589844 61.738281 157.28125 62.722656 C 148.847656 63.726562 140.574219 66.28125 133.042969 70.242188 C 125.6875 74.109375 119.066406 79.253906 113.417969 85.304688 C 107.667969 91.472656 102.910156 98.605469 99.402344 106.285156 C 95.503906 114.828125 93.152344 124.101562 92.546875 133.449219 C 91.964844 142.546875 93.042969 151.726562 95.96875 160.398438 C 99.03125 169.460938 104.117188 177.761719 110.621094 184.734375 C 115.929688 190.417969 122.203125 195.222656 129.101562 198.84375 C 128.367188 199.519531 127.617188 200.175781 126.84375 200.808594 C 124.765625 202.519531 122.550781 204.0625 120.199219 205.4375 L 121.175781 212.441406 C 125.730469 213.621094 145.492188 217.054688 168.894531 212.007812 C 172.464844 211.234375 176.132812 210.265625 179.839844 209.058594 C 180.921875 208.710938 182.011719 208.339844 183.101562 207.941406 C 183.027344 207.84375 182.945312 207.761719 182.871094 207.664062 C 181.226562 205.710938 179.722656 203.640625 178.355469 201.476562 C 177.296875 201.835938 176.238281 202.164062 175.1875 202.480469 C 172.507812 203.28125 169.871094 203.949219 167.273438 204.507812 C 152.960938 207.601562 140.257812 207.328125 132.015625 206.472656 C 134.292969 204.570312 136.453125 202.46875 138.457031 200.1875 L 141.941406 196.214844 L 137.066406 194.15625 C 129.207031 190.828125 122.074219 185.769531 116.238281 179.515625 C 110.441406 173.316406 105.929688 165.964844 103.238281 157.96875 C 100.640625 150.265625 99.6875 142.070312 100.207031 133.925781 C 100.746094 125.488281 102.867188 117.132812 106.375 109.460938 C 109.53125 102.542969 113.832031 96.109375 119.035156 90.523438 C 124.109375 85.082031 130.03125 80.46875 136.613281 77.011719 C 143.296875 73.496094 150.660156 71.226562 158.183594 70.328125 C 165.535156 69.449219 173.027344 69.90625 180.167969 71.816406 L 180.242188 71.828125 C 191.824219 74.691406 200.425781 79.75 206.675781 84.902344 C 212.917969 90.046875 216.785156 95.277344 218.914062 98.464844 C 220.292969 100.535156 221.605469 102.628906 222.8125 104.71875 Z M 223.777344 124.769531 C 223.25 122.253906 222.550781 119.773438 221.667969 117.351562 C 220.597656 117.53125 219.539062 117.753906 218.480469 118.019531 C 218.164062 118.09375 217.835938 118.175781 217.515625 118.261719 C 208.160156 120.585938 201.1875 124.695312 196.125 128.878906 C 191.039062 133.082031 187.859375 137.359375 186.113281 139.988281 C 185.074219 141.542969 184.066406 143.148438 183.101562 144.828125 C 182.148438 146.484375 181.257812 148.207031 180.464844 149.992188 C 177.246094 157.175781 175.8125 165.097656 176.132812 172.933594 C 176.386719 179.1875 177.753906 185.398438 180.210938 191.15625 C 180.632812 192.148438 181.089844 193.121094 181.578125 194.082031 C 181.8125 194.546875 182.054688 195 182.296875 195.453125 C 182.574219 195.953125 182.859375 196.449219 183.144531 196.945312 C 183.589844 197.695312 184.058594 198.433594 184.542969 199.152344 C 185.5625 200.671875 186.652344 202.121094 187.808594 203.503906 C 188.347656 204.136719 188.898438 204.769531 189.460938 205.382812 C 190.234375 206.21875 191.050781 207.03125 191.886719 207.824219 C 192.734375 208.625 193.613281 209.410156 194.523438 210.160156 C 194.640625 210.253906 194.757812 210.347656 194.863281 210.445312 L 194.96875 210.316406 L 194.90625 210.484375 C 194.925781 210.507812 195.171875 210.6875 196.273438 211.53125 L 196.941406 212.050781 C 197.089844 212.15625 197.226562 212.261719 197.375 212.375 C 207.195312 219.621094 217.546875 223.582031 227.007812 225.632812 C 243.910156 229.277344 258.234375 226.785156 261.539062 225.929688 L 262.511719 218.925781 C 260.890625 217.984375 259.355469 216.90625 257.925781 215.734375 L 257.523438 215.398438 C 262.003906 212.863281 266.085938 209.628906 269.601562 205.871094 C 274.347656 200.789062 278.054688 194.738281 280.292969 188.125 C 282.421875 181.796875 283.207031 175.109375 282.78125 168.5 C 282.347656 161.707031 280.632812 154.957031 277.792969 148.746094 C 275.238281 143.15625 271.785156 137.980469 267.609375 133.503906 C 263.5 129.097656 258.6875 125.347656 253.328125 122.539062 C 251.292969 121.472656 249.175781 120.542969 247.011719 119.75 C 245.835938 119.328125 244.648438 118.949219 243.453125 118.609375 C 244.121094 121.429688 244.640625 124.28125 244.988281 127.164062 C 246.144531 127.597656 247.277344 128.085938 248.390625 128.625 C 248.847656 128.84375 249.300781 129.078125 249.757812 129.308594 C 254.335938 131.71875 258.457031 134.929688 261.996094 138.722656 C 265.628906 142.621094 268.628906 147.109375 270.832031 151.9375 C 273.277344 157.28125 274.75 163.113281 275.121094 168.996094 C 275.480469 174.667969 274.824219 180.371094 273.011719 185.714844 C 271.136719 191.261719 268 196.375 263.976562 200.683594 C 259.917969 205.023438 254.960938 208.542969 249.503906 210.855469 L 244.628906 212.914062 L 248.113281 216.886719 C 249.003906 217.902344 249.9375 218.863281 250.902344 219.78125 C 245.199219 220.171875 237.351562 220.054688 228.628906 218.175781 C 221.042969 216.539062 212.863281 213.558594 204.980469 208.394531 C 203.996094 207.75 203.023438 207.074219 202.046875 206.367188 C 201.867188 206.230469 201.675781 206.089844 201.496094 205.953125 L 201.464844 205.921875 C 201.371094 205.847656 201.167969 205.699219 200.945312 205.53125 L 199.640625 204.507812 C 199.527344 204.410156 199.398438 204.304688 199.28125 204.210938 C 198.414062 203.484375 197.566406 202.722656 196.75 201.929688 C 195.679688 200.882812 194.664062 199.785156 193.6875 198.644531 C 192.957031 197.777344 192.269531 196.890625 191.609375 195.972656 C 191.167969 195.347656 190.730469 194.703125 190.320312 194.058594 C 189.863281 193.332031 189.417969 192.601562 189.015625 191.851562 C 188.910156 191.664062 188.804688 191.460938 188.707031 191.273438 C 188.210938 190.320312 187.742188 189.359375 187.320312 188.367188 C 185.179688 183.421875 184.003906 178.078125 183.78125 172.679688 C 183.507812 165.996094 184.722656 159.257812 187.457031 153.160156 C 188.136719 151.640625 188.921875 150.140625 189.769531 148.660156 C 190.605469 147.203125 191.527344 145.734375 192.5 144.265625 C 193.984375 142.050781 196.675781 138.414062 201.007812 134.835938 C 205.351562 131.242188 211.351562 127.714844 219.414062 125.730469 L 219.488281 125.71875 C 219.859375 125.625 220.226562 125.527344 220.597656 125.433594 C 221.648438 125.191406 222.695312 124.980469 223.765625 124.820312 Z M 223.777344 124.769531 " fill-opacity="1" fill-rule="evenodd"/></g><g fill="#38b6ff" fill-opacity="1"><g transform="translate(65.314907, 295.349637)"><g><path d="M 6.453125 0 L 6.453125 -47.484375 L 13.484375 -47.484375 L 13.484375 -3.875 C 16.398438 -3.007812 18.742188 -2.578125 20.515625 -2.578125 L 33.5 -4.8125 L 32.625 0 Z M 6.453125 0 "/></g></g></g><g fill="#38b6ff" fill-opacity="1"><g transform="translate(101.670611, 295.349637)"><g><path d="M 42.53125 0.78125 L 41.3125 0.78125 L 9.890625 -38.515625 L 9.609375 -38.515625 L 9.609375 0 L 6.453125 0 L 6.453125 -47.484375 L 11.765625 -47.484375 L 39.09375 -12.984375 L 39.375 -12.984375 L 39.375 -47.484375 L 42.53125 -47.484375 Z M 42.53125 0.78125 "/></g></g></g><g fill="#38b6ff" fill-opacity="1"><g transform="translate(152.080871, 295.349637)"><g/></g></g><g fill="#38b6ff" fill-opacity="1"><g transform="translate(171.442051, 295.349637)"><g><path d="M 6.453125 0 L 6.453125 -47.484375 L 20.015625 -47.484375 C 25.503906 -47.484375 29.875 -46.550781 33.125 -44.6875 C 36.382812 -42.820312 38.015625 -40.023438 38.015625 -36.296875 C 38.015625 -33.660156 37.09375 -31.375 35.25 -29.4375 C 33.40625 -27.5 30.835938 -26.03125 27.546875 -25.03125 C 31.890625 -24.21875 35.171875 -22.742188 37.390625 -20.609375 C 39.617188 -18.484375 40.734375 -16.15625 40.734375 -13.625 C 40.734375 -11.09375 40.085938 -8.929688 38.796875 -7.140625 C 37.503906 -5.347656 35.851562 -3.972656 33.84375 -3.015625 C 29.78125 -1.003906 25.625 0 21.375 0 Z M 13.40625 -25.75 L 18.578125 -25.75 C 22.921875 -25.75 26.035156 -26.71875 27.921875 -28.65625 C 29.816406 -30.59375 30.765625 -33.019531 30.765625 -35.9375 C 30.765625 -37.894531 30.109375 -39.671875 28.796875 -41.265625 C 27.484375 -42.867188 25.460938 -44.078125 22.734375 -44.890625 C 19.484375 -44.890625 16.375 -44.414062 13.40625 -43.46875 Z M 13.40625 -23.671875 L 13.40625 -3.234375 C 14.9375 -2.753906 17.300781 -2.515625 20.5 -2.515625 C 23.707031 -2.515625 26.554688 -3.394531 29.046875 -5.15625 C 31.535156 -6.925781 32.78125 -9.390625 32.78125 -12.546875 C 32.78125 -15.703125 31.414062 -18.34375 28.6875 -20.46875 C 25.957031 -22.601562 22.679688 -23.671875 18.859375 -23.671875 Z M 13.40625 -23.671875 "/></g></g></g><g fill="#38b6ff" fill-opacity="1"><g transform="translate(219.05575, 295.349637)"><g><path d="M 11.40625 -48.984375 L 11.40625 0 L 5.375 0 L 5.375 -48.984375 Z M 11.40625 -48.984375 "/></g></g></g><g fill="#38b6ff" fill-opacity="1"><g transform="translate(237.269614, 295.349637)"><g><path d="M 19.21875 -33.28125 C 23.425781 -33.28125 26.90625 -31.84375 29.65625 -28.96875 C 32.40625 -26.101562 33.78125 -22.160156 33.78125 -17.140625 C 33.78125 -13.929688 33.226562 -11.109375 32.125 -8.671875 C 31.03125 -6.234375 29.597656 -4.347656 27.828125 -3.015625 C 24.429688 -0.429688 20.640625 0.859375 16.453125 0.859375 C 12.273438 0.859375 8.8125 -0.570312 6.0625 -3.4375 C 3.3125 -6.3125 1.9375 -10.257812 1.9375 -15.28125 C 1.9375 -18.476562 2.472656 -21.296875 3.546875 -23.734375 C 4.617188 -26.171875 6.039062 -28.0625 7.8125 -29.40625 C 11.207031 -31.988281 15.007812 -33.28125 19.21875 -33.28125 Z M 17.78125 -1.578125 C 19.882812 -1.578125 21.679688 -2.390625 23.171875 -4.015625 C 25.847656 -6.878906 27.1875 -10.691406 27.1875 -15.453125 C 27.1875 -20.210938 26.367188 -23.914062 24.734375 -26.5625 C 23.109375 -29.21875 20.457031 -30.546875 16.78125 -30.546875 C 14.050781 -29.492188 11.984375 -27.640625 10.578125 -24.984375 C 9.171875 -22.335938 8.46875 -19.132812 8.46875 -15.375 C 8.46875 -11.625 9.226562 -8.382812 10.75 -5.65625 C 12.28125 -2.9375 14.625 -1.578125 17.78125 -1.578125 Z M 17.78125 -1.578125 "/></g></g></g><g fill="#38b6ff" fill-opacity="1"><g transform="translate(274.557514, 295.349637)"><g><path d="M 9.46875 -6.453125 C 9.46875 -5.546875 10.148438 -4.925781 11.515625 -4.59375 C 12.878906 -4.257812 15.492188 -4.09375 19.359375 -4.09375 C 23.234375 -4.09375 26.34375 -3.660156 28.6875 -2.796875 C 31.03125 -1.929688 32.203125 -0.304688 32.203125 2.078125 C 32.203125 5.617188 30.46875 8.8125 27 11.65625 C 23.53125 14.5 19.285156 15.921875 14.265625 15.921875 C 10.640625 15.921875 7.664062 15.238281 5.34375 13.875 C 3.019531 12.507812 1.859375 10.5625 1.859375 8.03125 C 1.859375 4.445312 3.820312 1.796875 7.75 0.078125 C 5.550781 -0.734375 4.453125 -2.25 4.453125 -4.46875 C 4.453125 -6.695312 6.171875 -9.128906 9.609375 -11.765625 C 6.023438 -13.628906 4.234375 -16.675781 4.234375 -20.90625 C 4.234375 -25.132812 5.554688 -28.253906 8.203125 -30.265625 C 10.859375 -32.273438 13.835938 -33.28125 17.140625 -33.28125 C 19.484375 -33.28125 21.726562 -32.632812 23.875 -31.34375 L 30.1875 -33.140625 L 31.625 -30.046875 L 27.1875 -27.828125 C 28.09375 -26.242188 28.546875 -24.398438 28.546875 -22.296875 C 28.546875 -20.203125 28.125 -18.351562 27.28125 -16.75 C 26.445312 -15.144531 25.363281 -13.910156 24.03125 -13.046875 C 21.351562 -11.328125 18.457031 -10.46875 15.34375 -10.46875 C 14.863281 -10.46875 14.195312 -10.515625 13.34375 -10.609375 C 12.53125 -10.367188 11.679688 -9.84375 10.796875 -9.03125 C 9.910156 -8.21875 9.46875 -7.359375 9.46875 -6.453125 Z M 22.875 -21.65625 C 22.875 -24.144531 22.21875 -26.304688 20.90625 -28.140625 C 19.59375 -29.984375 17.96875 -30.90625 16.03125 -30.90625 C 14.09375 -30.90625 12.550781 -30.066406 11.40625 -28.390625 C 10.257812 -26.722656 9.6875 -24.5625 9.6875 -21.90625 C 9.6875 -19.25 10.332031 -17.046875 11.625 -15.296875 C 12.914062 -13.554688 14.46875 -12.6875 16.28125 -12.6875 C 20.675781 -12.6875 22.875 -15.675781 22.875 -21.65625 Z M 15.421875 12.625 C 19.390625 12.625 22.757812 11.523438 25.53125 9.328125 C 28.300781 7.128906 29.6875 4.925781 29.6875 2.71875 C 27.25 1.71875 23.84375 1.21875 19.46875 1.21875 C 15.09375 1.21875 12.070312 1.070312 10.40625 0.78125 C 8.300781 2.550781 7.25 4.441406 7.25 6.453125 C 7.25 10.566406 9.972656 12.625 15.421875 12.625 Z M 15.421875 12.625 "/></g></g></g></svg>